<svg width='128' height='128' viewBox='0 0 24 24' xmlns='http://www.w3.org/2000/svg' xmlns:xlink='http://www.w3.org/1999/xlink'>
    <rect width='128' height='128' stroke='none' fill="#ffffff" opacity='0'/>
    <g transform="matrix(0.25 0 0 0.25 12 12)" >
        <path style="stroke: none; stroke-width: 1; stroke-dasharray: none; stroke-linecap: butt; stroke-dashoffset: 0; stroke-linejoin: miter; stroke-miterlimit: 4;  fill-rule: nonzero; opacity: 1;" transform=" translate(-50, -49)" d="M 81.5 9 C 81.026 9 80.658203 9.1035156 80.658203 9.1035156 C 80.65559638945392 9.104156180713598 80.65299236835179 9.104807252656338 80.650391 9.1054688 L 65.539062 12.222656 C 65.28159529889632 12.276366208841555 65.05564927524404 12.429336207287623 64.910156 12.648438 C 64.480336 12.857431 64.080525 13.119284 63.720703 13.423828 C 63.712891739561705 13.423644895508675 63.705077260438294 13.423644895508675 63.697266 13.423828 C 63.55055666526512 13.430375901637364 63.41414209912048 13.501083132923844 63.324219 13.617188 L 39.158203 44 L 39 44 C 36.60454 44 34.682779 45.741814 34.203125 48 L 19 48 C 16.250484 48 14 50.250484 14 53 L 14 63 C 14 65.749516 16.250484 68 19 68 L 28 68 L 28 71 L 23 71 C 18.041484 71 14 75.041484 14 80 C 14 84.958516 18.041484 89 23 89 L 59 89 C 63.958516 89 68 84.958516 68 80 C 68 75.041484 63.958516 71 59 71 L 54 71 L 54 68 L 63 68 C 65.407153 68 67.431549 66.274577 67.898438 64 L 74 64 L 81 64 L 81 69.279297 L 78.683594 70.050781 C 78.3443934389503 70.1637618652616 78.09125093829242 70.4491461409293 78.01954816150456 70.79940377229883 C 77.9478453847167 71.14966140366838 78.06847914221382 71.5115630574223 78.33599579254182 71.74874766554217 C 78.60351244286981 71.98593227366206 78.97725696049045 72.06235443004489 79.316406 71.949219 L 81 71.388672 L 81 75.279297 L 78.683594 76.050781 C 78.3443934389503 76.1637618652616 78.09125093829242 76.4491461409293 78.01954816150456 76.79940377229883 C 77.9478453847167 77.14966140366838 78.06847914221382 77.5115630574223 78.33599579254182 77.74874766554217 C 78.60351244286981 77.98593227366206 78.97725696049045 78.06235443004489 79.316406 77.949219 L 81 77.388672 L 81 81.279297 L 78.683594 82.050781 C 78.3443934389503 82.1637618652616 78.09125093829242 82.4491461409293 78.01954816150456 82.79940377229883 C 77.9478453847167 83.14966140366838 78.06847914221382 83.5115630574223 78.33599579254182 83.74874766554217 C 78.60351244286981 83.98593227366206 78.97725696049045 84.06235443004489 79.316406 83.949219 L 81 83.388672 L 81 86 C 80.99489971045452 86.36063591657756 81.18437529616934 86.69608136457161 81.49587284971433 86.87788772148652 C 81.80737040325933 87.05969407840142 82.19262959674067 87.05969407840142 82.50412715028567 86.87788772148652 C 82.81562470383066 86.69608136457161 83.00510028954548 86.36063591657756 83 86 L 83 82.720703 L 85.316406 81.949219 C 85.6556065610497 81.8362381347384 85.90874906170758 81.5508538590707 85.98045183849544 81.20059622770117 C 86.0521546152833 80.85033859633162 85.93152085778618 80.4884369425777 85.66400420745818 80.25125233445783 C 85.39648755713019 80.01406772633794 85.02274303950955 79.93764556995511 84.683594 80.050781 L 83 80.611328 L 83 76.720703 L 85.316406 75.949219 C 85.6556065610497 75.8362381347384 85.90874906170758 75.5508538590707 85.98045183849544 75.20059622770117 C 86.0521546152833 74.85033859633162 85.93152085778618 74.4884369425777 85.66400420745818 74.25125233445783 C 85.39648755713019 74.01406772633794 85.02274303950955 73.93764556995511 84.683594 74.050781 L 83 74.611328 L 83 70.720703 L 85.316406 69.949219 C 85.6556065610497 69.8362381347384 85.90874906170758 69.5508538590707 85.98045183849544 69.20059622770117 C 86.0521546152833 68.85033859633162 85.93152085778618 68.4884369425777 85.66400420745818 68.25125233445783 C 85.39648755713019 68.01406772633794 85.02274303950955 67.93764556995511 84.683594 68.050781 L 83 68.611328 L 83 64 L 83.5 64 C 84.874985 64 86 62.874985 86 61.5 L 86 58.5 C 86 57.125015 84.874985 56 83.5 56 L 83 56 L 83 29 L 83.5 29 C 84.322531 29 85 28.322531 85 27.5 L 85 26.5 C 85 25.677469 84.322531 25 83.5 25 L 82.5 25 L 82.5 16.082031 L 83.40625 15.425781 L 83.349609 15.462891 C 84.334439 14.847197 85 13.746722 85 12.5 C 85 10.578812 83.421188 9 81.5 9 z M 81.5 11 C 82.340812 11 83 11.659188 83 12.5 C 83 13.041278 82.718232 13.499271 82.289062 13.767578 C 82.27042914382491 13.77934214509609 82.25219018775569 13.79171890117576 82.234375 13.804688 L 73.414062 20.189453 C 73.15396933998464 20.377536496623446 72.99995506401098 20.67902711722526 73 21 L 73 62 L 68 62 L 68 59.580078 C 68.00881720152219 59.526401346154 68.00881720152219 59.471645653846 68 59.417969 L 68 21.605469 C 68.01045662387284 21.52246368961512 68.01045662387284 21.43847431038488 68 21.355469 L 68 21 C 67.99994478209464 20.44773812379154 67.55226187620846 20.00005521790535 67 20 C 65.331516 20 64 18.668484 64 17 C 64 15.667143 64.863868 14.568062 66.060547 14.169922 C 66.5222696128943 14.015743648995498 66.80591850134346 13.551515698517255 66.732422 13.070312 L 66.876953 13.988281 L 81.046875 11.064453 L 81.054688 11.0625 C 81.070849 11.060356 81.525545 11 81.5 11 z M 81.5 16.804688 L 81.5 25 L 75 25 L 75 21.509766 L 81.5 16.804688 z M 62.009766 16.873047 C 62.00856 16.916163 62 16.956491 62 17 C 62 19.24674 63.530326 21.086248 65.580078 21.710938 L 48.564453 44 L 40.433594 44 L 62.009766 16.873047 z M 66 24.458984 L 66 53.84375 L 55.484375 44.947266 C 55.48437563628919 44.946614666822065 55.48437563628919 44.945963333177936 55.484375 44.945312 C 54.762767 44.335588 53.84701 44 52.900391 44 L 51.082031 44 L 66 24.458984 z M 75 26 L 83.5 26 C 83.781469 26 84 26.218531 84 26.5 L 84 27.5 C 84 27.781469 83.781469 28 83.5 28 L 82.154297 28 C 82.09814867902894 27.990614857826948 82.04130155287599 27.986040912671154 81.984375 27.986328 C 81.93593040463499 27.987377970550263 81.88762617155317 27.991947339576246 81.839844 28 L 75 28 L 75 26 z M 75 29 L 81 29 L 81 56 L 75 56 L 75 29 z M 39 46 L 52.900391 46 C 53.373771 46 53.830967 46.168381 54.193359 46.474609 L 54.193359 46.472656 L 65.292969 55.865234 C 65.740854 56.245663 66 56.803559 66 57.390625 L 66 59 L 53.5 59 C 51.561258 59 50 57.438742 50 55.5 C 50.00211728839854 55.36468191098846 49.94929599641625 55.23428410438155 49.85359994601735 55.13858805398265 C 49.75790389561845 55.04289200358375 49.62750608901154 54.99007071160146 49.492188 54.992188 C 49.35957881321872 54.99425696181516 49.233223191175846 55.04892148251605 49.1409194123194 55.14415534955192 C 49.04861563346295 55.239389216587796 48.99792519137388 55.36739090456929 49 55.5 C 49 57.979258 51.020742 60 53.5 60 L 66 60 L 66 63 C 66 64.668484 64.668484 66 63 66 L 19 66 C 17.331516 66 16 64.668484 16 63 L 16 53 C 16 51.331516 17.331516 50 19 50 L 35 50 C 35.55226187620846 49.99994478209465 35.99994478209465 49.55226187620846 36 49 C 36 47.331516 37.331516 46 39 46 z M 49.492188 46.992188 C 49.35957881321872 46.99425696181516 49.233223191175846 47.04892148251605 49.1409194123194 47.14415534955192 C 49.04861563346295 47.239389216587796 48.99792519137388 47.36739090456929 49 47.5 L 49 48.5 C 48.99744985522726 48.68031795828878 49.09218764808467 48.848040682285806 49.247936424857166 48.93894386074326 C 49.40368520162966 49.02984703920071 49.59631479837034 49.02984703920071 49.752063575142834 48.93894386074326 C 49.90781235191533 48.848040682285806 50.00255014477274 48.68031795828878 50 48.5 L 50 47.5 C 50.00211728839854 47.36468191098846 49.94929599641625 47.23428410438155 49.85359994601735 47.13858805398265 C 49.75790389561845 47.04289200358375 49.62750608901154 46.99007071160146 49.492188 46.992188 z M 49.492188 50.992188 C 49.35957881321872 50.99425696181516 49.233223191175846 51.04892148251605 49.1409194123194 51.14415534955192 C 49.04861563346295 51.239389216587796 48.99792519137388 51.36739090456929 49 51.5 L 49 53.5 C 48.99744985522726 53.68031795828878 49.09218764808467 53.848040682285806 49.247936424857166 53.93894386074326 C 49.40368520162966 54.02984703920071 49.59631479837034 54.02984703920071 49.752063575142834 53.93894386074326 C 49.90781235191533 53.848040682285806 50.00255014477274 53.68031795828878 50 53.5 L 50 51.5 C 50.00211728839854 51.36468191098846 49.94929599641625 51.23428410438155 49.85359994601735 51.13858805398265 C 49.75790389561845 51.04289200358375 49.62750608901154 50.99007071160146 49.492188 50.992188 z M 19.5 53 C 19.319682041711214 52.99744985522726 19.151959317714198 53.09218764808467 19.061056139256742 53.247936424857166 C 18.970152960799286 53.40368520162966 18.970152960799286 53.59631479837034 19.061056139256742 53.752063575142834 C 19.151959317714198 53.90781235191533 19.319682041711214 54.00255014477274 19.5 54 L 29.5 54 C 29.680317958288786 54.00255014477274 29.848040682285802 53.90781235191533 29.938943860743258 53.752063575142834 C 30.029847039200714 53.59631479837034 30.029847039200714 53.40368520162966 29.938943860743258 53.247936424857166 C 29.848040682285802 53.09218764808467 29.680317958288786 52.99744985522726 29.5 53 L 19.5 53 z M 19.5 56 C 19.319682041711214 55.99744985522726 19.151959317714198 56.09218764808467 19.061056139256742 56.247936424857166 C 18.970152960799286 56.40368520162966 18.970152960799286 56.59631479837034 19.061056139256742 56.752063575142834 C 19.151959317714198 56.90781235191533 19.319682041711214 57.00255014477274 19.5 57 L 25.5 57 C 25.680317958288786 57.00255014477274 25.848040682285802 56.90781235191533 25.938943860743258 56.752063575142834 C 26.029847039200714 56.59631479837034 26.029847039200714 56.40368520162966 25.938943860743258 56.247936424857166 C 25.848040682285802 56.09218764808467 25.680317958288786 55.99744985522726 25.5 56 L 19.5 56 z M 28.5 56 C 28.319682041711214 55.99744985522726 28.151959317714198 56.09218764808467 28.061056139256742 56.247936424857166 C 27.970152960799286 56.40368520162966 27.970152960799286 56.59631479837034 28.061056139256742 56.752063575142834 C 28.151959317714198 56.90781235191533 28.319682041711214 57.00255014477274 28.5 57 L 29.5 57 C 29.680317958288786 57.00255014477274 29.848040682285802 56.90781235191533 29.938943860743258 56.752063575142834 C 30.029847039200714 56.59631479837034 30.029847039200714 56.40368520162966 29.938943860743258 56.247936424857166 C 29.848040682285802 56.09218764808467 29.680317958288786 55.99744985522726 29.5 56 L 28.5 56 z M 75 57 L 81.832031 57 C 81.9400224374646 57.017849048052845 82.0502115625354 57.017849048052845 82.158203 57 L 83.5 57 C 84.335015 57 85 57.664985 85 58.5 L 85 61.5 C 85 62.335015 84.335015 63 83.5 63 L 82.154297 63 C 82.09814867902894 62.99061485782695 82.04130155287599 62.98604091267115 81.984375 62.986328 C 81.93593040463499 62.98737797055026 81.88762617155317 62.99194733957625 81.839844 63 L 75 63 L 75 57 z M 19.5 59 C 19.319682041711214 58.99744985522726 19.151959317714198 59.09218764808467 19.061056139256742 59.247936424857166 C 18.970152960799286 59.40368520162966 18.970152960799286 59.59631479837034 19.061056139256742 59.752063575142834 C 19.151959317714198 59.90781235191533 19.319682041711214 60.00255014477274 19.5 60 L 29.5 60 C 29.680317958288786 60.00255014477274 29.848040682285802 59.90781235191533 29.938943860743258 59.752063575142834 C 30.029847039200714 59.59631479837034 30.029847039200714 59.40368520162966 29.938943860743258 59.247936424857166 C 29.848040682285802 59.09218764808467 29.680317958288786 58.99744985522726 29.5 59 L 19.5 59 z M 19.5 62 C 19.319682041711214 61.99744985522726 19.151959317714198 62.09218764808467 19.061056139256742 62.247936424857166 C 18.970152960799286 62.40368520162966 18.970152960799286 62.59631479837034 19.061056139256742 62.752063575142834 C 19.151959317714198 62.90781235191533 19.319682041711214 63.00255014477274 19.5 63 L 21.5 63 C 21.680317958288786 63.00255014477274 21.848040682285802 62.90781235191533 21.938943860743258 62.752063575142834 C 22.029847039200714 62.59631479837034 22.029847039200714 62.40368520162966 21.938943860743258 62.247936424857166 C 21.848040682285802 62.09218764808467 21.680317958288786 61.99744985522726 21.5 62 L 19.5 62 z M 24.5 62 C 24.319682041711214 61.99744985522726 24.151959317714198 62.09218764808467 24.061056139256742 62.247936424857166 C 23.970152960799286 62.40368520162966 23.970152960799286 62.59631479837034 24.061056139256742 62.752063575142834 C 24.151959317714198 62.90781235191533 24.319682041711214 63.00255014477274 24.5 63 L 29.5 63 C 29.680317958288786 63.00255014477274 29.848040682285802 62.90781235191533 29.938943860743258 62.752063575142834 C 30.029847039200714 62.59631479837034 30.029847039200714 62.40368520162966 29.938943860743258 62.247936424857166 C 29.848040682285802 62.09218764808467 29.680317958288786 61.99744985522726 29.5 62 L 24.5 62 z M 30 68 L 52 68 L 52 71 L 30 71 L 30 68 z M 23 73 L 28 73 L 54 73 L 59 73 C 62.877484 73 66 76.122516 66 80 C 66 83.877484 62.877484 87 59 87 L 23 87 C 19.122516 87 16 83.877484 16 80 C 16 76.122516 19.122516 73 23 73 z M 23 76 C 21.708334 76 20.676923 76.502378 20.001953 77.261719 C 19.326984 78.02106 19 79.013889 19 80 C 19 80.986111 19.326984 81.97894 20.001953 82.738281 C 20.676923 83.497622 21.708334 84 23 84 C 24.291666 84 25.323077 83.497622 25.998047 82.738281 C 26.673016 81.97894 27 80.986111 27 80 C 27 79.013889 26.673016 78.02106 25.998047 77.261719 C 25.323077 76.502378 24.291666 76 23 76 z M 35 76 C 33.708334 76 32.676923 76.502378 32.001953 77.261719 C 31.326984 78.02106 31 79.013889 31 80 C 31 80.986111 31.326984 81.97894 32.001953 82.738281 C 32.676923 83.497622 33.708334 84 35 84 C 36.291666 84 37.323077 83.497622 37.998047 82.738281 C 38.673016 81.97894 39 80.986111 39 80 C 39 79.013889 38.673016 78.02106 37.998047 77.261719 C 37.323077 76.502378 36.291666 76 35 76 z M 47 76 C 45.708334 76 44.676923 76.502378 44.001953 77.261719 C 43.326984 78.02106 43 79.013889 43 80 C 43 80.986111 43.326984 81.97894 44.001953 82.738281 C 44.676923 83.497622 45.708334 84 47 84 C 48.291666 84 49.323077 83.497622 49.998047 82.738281 C 50.673016 81.97894 51 80.986111 51 80 C 51 79.013889 50.673016 78.02106 49.998047 77.261719 C 49.323077 76.502378 48.291666 76 47 76 z M 59 76 C 57.708334 76 56.676923 76.502378 56.001953 77.261719 C 55.326984 78.02106 55 79.013889 55 80 C 55 80.986111 55.326984 81.97894 56.001953 82.738281 C 56.676923 83.497622 57.708334 84 59 84 C 60.291666 84 61.323077 83.497622 61.998047 82.738281 C 62.673016 81.97894 63 80.986111 63 80 C 63 79.013889 62.673016 78.02106 61.998047 77.261719 C 61.323077 76.502378 60.291666 76 59 76 z M 23 77 C 24.041666 77 24.760256 77.372622 25.251953 77.925781 C 25.74365 78.47894 26 79.236111 26 80 C 26 80.763889 25.74365 81.52106 25.251953 82.074219 C 24.760256 82.627378 24.041666 83 23 83 C 21.958334 83 21.239744 82.627378 20.748047 82.074219 C 20.25635 81.52106 20 80.763889 20 80 C 20 79.236111 20.25635 78.47894 20.748047 77.925781 C 21.239744 77.372622 21.958334 77 23 77 z M 35 77 C 36.041666 77 36.760256 77.372622 37.251953 77.925781 C 37.74365 78.47894 38 79.236111 38 80 C 38 80.763889 37.74365 81.52106 37.251953 82.074219 C 36.760256 82.627378 36.041666 83 35 83 C 33.958334 83 33.239744 82.627378 32.748047 82.074219 C 32.25635 81.52106 32 80.763889 32 80 C 32 79.236111 32.25635 78.47894 32.748047 77.925781 C 33.239744 77.372622 33.958334 77 35 77 z M 47 77 C 48.041666 77 48.760256 77.372622 49.251953 77.925781 C 49.74365 78.47894 50 79.236111 50 80 C 50 80.763889 49.74365 81.52106 49.251953 82.074219 C 48.760256 82.627378 48.041666 83 47 83 C 45.958334 83 45.239744 82.627378 44.748047 82.074219 C 44.25635 81.52106 44 80.763889 44 80 C 44 79.236111 44.25635 78.47894 44.748047 77.925781 C 45.239744 77.372622 45.958334 77 47 77 z M 59 77 C 60.041666 77 60.760256 77.372622 61.251953 77.925781 C 61.74365 78.47894 62 79.236111 62 80 C 62 80.763889 61.74365 81.52106 61.251953 82.074219 C 60.760256 82.627378 60.041666 83 59 83 C 57.958334 83 57.239744 82.627378 56.748047 82.074219 C 56.25635 81.52106 56 80.763889 56 80 C 56 79.236111 56.25635 78.47894 56.748047 77.925781 C 57.239744 77.372622 57.958334 77 59 77 z" stroke-linecap="round" />
    </g>
</svg>