<?xml version="1.0" encoding="UTF-8" standalone="no" ?>
<!DOCTYPE svg PUBLIC "-//W3C//DTD SVG 1.1//EN" "http://www.w3.org/Graphics/SVG/1.1/DTD/svg11.dtd">
<svg xmlns="http://www.w3.org/2000/svg" xmlns:xlink="http://www.w3.org/1999/xlink" version="1.1" width="400" height="400" viewBox="0 0 400 400" xml:space="preserve">
<desc>Created with Fabric.js 3.6.2</desc>
<defs>
</defs>
<g transform="matrix(10 0 0 10 200 200)"  >
<path style="stroke: none; stroke-width: 1; stroke-dasharray: none; stroke-linecap: butt; stroke-dashoffset: 0; stroke-linejoin: miter; stroke-miterlimit: 4; fill: rgb(101,99,255); fill-rule: nonzero; opacity: 1;"  transform=" translate(-12, -12)" d="M 19 2 H 5 A 3 3 0 0 0 2 5 V 6.17 a 3 3 0 0 0 0.25 1.2 l 0 0.06 a 2.81 2.81 0 0 0 0.59 0.86 L 9 14.41 V 21 a 1 1 0 0 0 0.47 0.85 A 1 1 0 0 0 10 22 a 1 1 0 0 0 0.45 -0.11 l 4 -2 A 1 1 0 0 0 15 19 V 14.41 l 6.12 -6.12 a 2.81 2.81 0 0 0 0.59 -0.86 l 0 -0.06 A 3 3 0 0 0 22 6.17 V 5 A 3 3 0 0 0 19 2 Z M 13.29 13.29 A 1 1 0 0 0 13 14 v 4.38 l -2 1 V 14 a 1 1 0 0 0 -0.29 -0.71 L 5.41 8 H 18.59 Z M 20 6 H 4 V 5 A 1 1 0 0 1 5 4 H 19 a 1 1 0 0 1 1 1 Z" stroke-linecap="round" />
</g>
</svg>