<?xml version="1.0" encoding="iso-8859-1"?>
<!-- Uploaded to: SVG Repo, www.svgrepo.com, Generator: SVG Repo Mixer Tools -->
<!DOCTYPE svg PUBLIC "-//W3C//DTD SVG 1.1//EN" "http://www.w3.org/Graphics/SVG/1.1/DTD/svg11.dtd">
<svg fill="#000000" version="1.1" id="Capa_1" xmlns="http://www.w3.org/2000/svg" xmlns:xlink="http://www.w3.org/1999/xlink" 
	 width="800px" height="800px" viewBox="0 0 56.318 56.318"
	 xml:space="preserve">
<g>
	<g>
		<path d="M27.324,56.065c0.252,0.169,0.543,0.253,0.834,0.253s0.583-0.084,0.834-0.253c0.188-0.125,1.42-0.964,3.168-2.384
			c0.188-0.071,0.363-0.183,0.519-0.332c0.059-0.062,0.088-0.137,0.135-0.205c5.426-4.536,14.68-13.899,14.68-24.983V1.606
			c0-0.829-0.672-1.5-1.5-1.5H29.791c-1.164-0.142-2.104-0.142-3.271,0H14.199c-0.348-0.135-0.735-0.135-1.083,0h-2.791
			c-0.828,0-1.5,0.671-1.5,1.5v26.555C8.825,43.51,26.568,55.559,27.324,56.065z M28.158,52.975
			c-2.589-1.908-10.522-8.217-14.297-16.317l15.446,15.444C28.857,52.454,28.469,52.747,28.158,52.975z M31.63,50.18L11.996,30.553
			c-0.109-0.789-0.173-1.586-0.173-2.393v-8.461l25.152,25.152C35.146,46.96,33.25,48.766,31.63,50.18z M25.994,3.106L44.49,21.603
			v6.558c0,0.649-0.045,1.295-0.117,1.938L17.386,3.109L25.994,3.106L25.994,3.106z M44.49,17.361L30.236,3.106H44.49V17.361z
			 M13.141,3.106l30.497,30.495c-0.992,3.229-2.754,6.246-4.762,8.906L11.825,15.456V3.106H13.141z"/>
	</g>
</g>
</svg>